<?xml version="1.0" encoding="UTF-8"?>

<svg version="1.2" baseProfile="tiny" width="210mm" height="297mm" viewBox="0 0 21000 29700" preserveAspectRatio="xMidYMid" fill-rule="evenodd" stroke-width="28.222" stroke-linejoin="round" xmlns="http://www.w3.org/2000/svg" xmlns:xlink="http://www.w3.org/1999/xlink" xml:space="preserve">
 <g visibility="visible" id="MasterSlide_1_Standard">
  <desc>Master slide
  </desc>
  <rect fill="none" stroke="none" x="0" y="0" width="21000" height="29700"/>
 </g>
 <g visibility="visible" id="Slide_1_page1">
  <g>
   <path fill="rgb(179,179,179)" stroke="rgb(128,128,128)" id="Drawing_1_0" stroke-linejoin="round" d="M 4700,6000 C 4240,6000 3849,5895 3450,5665 3051,5435 2765,5149 2535,4750 2305,4351 2200,3960 2200,3500 2200,3040 2305,2649 2535,2250 2765,1851 3051,1565 3450,1335 3849,1105 4240,1000 4700,1000 5160,1000 5551,1105 5950,1335 6349,1565 6635,1851 6865,2250 7095,2649 7200,3040 7200,3500 7200,3960 7095,4351 6865,4750 6635,5149 6349,5435 5950,5665 5551,5895 5160,6000 4700,6000 L 4700,6000 Z"/>
  </g>
  <g>
   <path fill="rgb(179,179,179)" stroke="rgb(128,128,128)" id="Drawing_2_0" stroke-linejoin="round" d="M 4750,15800 C 4060,15800 3473,15601 2875,15164 2277,14726 1848,14182 1502,13425 1157,12668 1000,11924 1000,11050 1000,10176 1157,9432 1502,8675 1848,7918 2277,7374 2875,6936 3473,6499 4060,6300 4750,6300 5440,6300 6027,6499 6625,6936 7223,7374 7652,7918 7998,8675 8343,9432 8500,10176 8500,11050 8500,11924 8343,12668 7998,13425 7652,14182 7223,14726 6625,15164 6027,15601 5440,15800 4750,15800 L 4750,15800 Z"/>
  </g>
 </g>
</svg>